<svg version="1.2" xmlns="http://www.w3.org/2000/svg" viewBox="0 0 180 180" width="180" height="180">
	<title>Equimap</title>
	<g id="Layer 1">
		<path id="&lt;Path&gt;" class="s0" d="m1217.7 513.9h-720v-720h720z"/>
		<path id="&lt;Path&gt;" class="s0" d="m359 2202h-720v-720h720z"/>
		<g id="&lt;Group&gt;">
			<path id="&lt;Path&gt;" class="s1" d="m692.5 184.6c1.5-3.9 1.8-5.7 2.8-7 34-43.8 71.3-84.3 118.4-114.6 61.1-39.4 125.9-48.3 194.8-23.5 9.3 3.4 18.8 6 27.9 9.8 16.3 6.9 32.1 9 49.9 3.7 18.8-5.5 37.4-2.4 51 9.8-7.4 6.6-15.5 11.8-21 19-9.4 12.3-17.1 25.8-26.6 40.4-4.1-18.7 0.8-33.1 11.8-46.3-18.5 0.2-25.2 7.8-35.2 36.6-1.9-8.3-3.8-16.6-6.1-26.4-36-17.2-75.7-23-116.8-18.3-87.8 10.1-162.3 50.5-230.9 103.6-3.5 2.7-6.5 5.9-10.1 8.4-2.3 1.7-5.1 2.5-9.9 4.8z"/>
			<path id="&lt;Path&gt;" class="s1" d="m1048.1 45.1c-44.3-31.4-92.7-35.3-143.6-30.2-54.8 5.6-108.9 3.5-159.7-21.6-2.3-1.1-4.6-2.3-6.8-3.6-0.4-0.3-0.6-1.1-1.2-2.4 2.5 0.4 4.7 0.4 6.7 0.9 50.9 14.4 101.1 8.8 151.4-4.2 35.5-9.3 71.5-11.4 106.4 3.4 20.1 8.5 34.8 22.7 42.9 43.2 1.8 4.6 2.6 9.7 3.9 14.5z"/>
			<path id="&lt;Path&gt;" class="s1" d="m1024.5 261.2c12 6 16.4 14.9 18.2 25.1 2 11.2 3.1 22.5 4.5 33.7 1.3 10.6 5.7 14 16.2 12.1 18.9-3.5 28.5-14.4 29.4-33.9 2.3-52.2 4.5-104.4 6.8-156.6 0.3-5.7 1.6-11.4 2.9-20.4 11.5 19.7 20.7 36.7 19.2 57.3-3.5 47.4-7.2 94.7-10.7 142.1-0.8 9.9-5.1 17.3-14.1 21.8q-10.3 5-20.8 9.5c-23.3 9.9-43.6-1.8-47.6-27.5q-0.7-4.3-1-8.7c-1-17.5-1.9-35-3-54.5z"/>
			<path id="&lt;Path&gt;" class="s1" d="m1016.5 258c-29-6-38.8-27.3-46.6-50.8-27.3 9.6-49 25.7-64.9 48.8-16 23.1-30.5 47.2-45.7 70.9-2 3.2-4.1 6.3-7.1 9 12.2-37.4 21.4-75.9 43.7-109.1 16.8-24.9 40.3-38.8 70.7-39.3 6.9-0.2 10.4-2.9 13.6-8.6 9.7-17.4 24.5-27.4 47.6-29.3-16.9 16.1-34.5 29.2-37.2 51.8-2.8 23 12.4 38.6 25.9 56.6z"/>
			<path id="&lt;Path&gt;" class="s1" d="m827.9 31.3c-58.4 52.4-155.7 41.7-223.4-24.1 34.5 16.1 70.5 25.8 108.4 29 38 3.3 75.7 1.5 115-4.9z"/>
			<path id="&lt;Path&gt;" class="s1" d="m562.2 99.1c40.4 21.4 78.9 9.3 117.4 1.7 24.2-4.8 48.4-10.1 72.9-13.9-42.5 17.9-82.9 41.5-129.8 46.4-27.7 2.9-48.6-8.5-60.5-34.2z"/>
			<path id="&lt;Path&gt;" class="s1" d="m1109.3 113.7c7.4-24 19.4-31.2 44-26.2-12.3 19.4-30.5 31.2-44 26.2z"/>
		</g>
		<text id="equimap
" style="transform: matrix(1,0,0,1,-189.431,1902.938)" >
			<tspan x="0" y="0" class="t2" dx="0 -5 -5 -5 -5 -5 -5 -5" >equimap
</tspan>
		</text>
		<path id="&lt;Path&gt;" class="s1" d="m-92.1 1775c-11.3-0.4-19.8 5.2-27.5 12.4-10.5 10-18.3 22.2-25.5 34.6-3.7 6.4-7.7 12.5-13.6 17.1-6.7 5.2-14.3 8.2-22.9 7.6-1 0-2-0.3-3.6-0.6 1-0.6 1.4-0.9 1.8-1 10.2-1.8 17-8.2 21.8-16.8 4.1-7.4 7.7-15 11.8-22.4 5.9-10.6 12.7-20.4 22.3-28 6.8-5.3 14.3-8.7 23.1-7.9 4.6 0.4 8.7 2 12.3 5z"/>
		<path id="&lt;Path&gt;" class="s1" d="m47.4 1772.7c0.4-1 0.5-1.5 0.7-1.8 9-11.5 18.8-22.1 31.1-30.1 16.1-10.3 33.1-12.7 51.2-6.2 2.4 0.9 4.9 1.6 7.3 2.6 4.3 1.8 8.4 2.4 13.1 1 4.9-1.5 9.8-0.7 13.4 2.6-1.9 1.7-4.1 3-5.5 4.9-2.5 3.3-4.5 6.8-7 10.6-1.1-4.9 0.2-8.7 3.1-12.1-4.9 0-6.6 2-9.2 9.6-0.5-2.2-1-4.4-1.6-6.9-9.5-4.6-19.9-6.1-30.7-4.8-23.1 2.6-42.6 13.2-60.6 27.2-0.9 0.7-1.8 1.5-2.7 2.2-0.6 0.4-1.3 0.6-2.6 1.2z"/>
		<path id="&lt;Path&gt;" class="s1" d="m48.7 1762.6c-2.7 2-5.4 4.2-8.3 5.9-8.2 5-17.4 7.4-26.8 7.7-17.4 0.6-34.8 0.5-52.2 0.4-17.1-0.1-34.1 0.2-50.7 5.5-0.2 0.1-0.5 0-1.3 0 0.9-0.7 1.3-1.3 1.9-1.7 11.1-7.9 23.6-11.6 37-12 13.9-0.5 27.8-0.3 41.7 0.1 19.4 0.6 38.4-0.4 57-6.2 0.4-0.2 0.9-0.2 1.3-0.3q0.2 0.3 0.4 0.6z"/>
		<path id="&lt;Path&gt;" class="s1" d="m140.8 1736.1c-11.6-8.2-24.4-9.3-37.7-7.9-14.4 1.4-28.6 0.9-42-5.7q-0.9-0.4-1.7-0.9c-0.2-0.1-0.2-0.3-0.3-0.7 0.6 0.1 1.2 0.1 1.7 0.3 13.4 3.7 26.5 2.3 39.7-1.1 9.4-2.5 18.8-3 28 0.9 5.3 2.2 9.1 5.9 11.3 11.3 0.4 1.2 0.7 2.5 1 3.8z"/>
		<path id="&lt;Path&gt;" class="s1" d="m134.6 1792.8c3.1 1.6 4.3 4 4.8 6.6 0.5 3 0.8 5.9 1.1 8.9 0.4 2.8 1.6 3.7 4.3 3.2 5-1 7.5-3.8 7.7-8.9 0.6-13.7 1.2-27.5 1.8-41.2 0.1-1.5 0.4-3 0.8-5.3 3 5.1 5.4 9.6 5 15-0.9 12.5-1.9 24.9-2.8 37.3-0.2 2.6-1.3 4.6-3.7 5.8q-2.7 1.3-5.5 2.5c-6.1 2.6-11.4-0.5-12.5-7.3q-0.1-1.1-0.2-2.2c-0.3-4.6-0.5-9.2-0.8-14.4z"/>
		<path id="&lt;Path&gt;" class="s1" d="m132.5 1792c-7.6-1.6-10.2-7.2-12.3-13.3-7.1 2.5-12.8 6.7-17 12.8-4.2 6-8 12.4-12 18.6-0.5 0.8-1.1 1.7-1.9 2.4 3.2-9.9 5.7-20 11.5-28.7 4.4-6.5 10.6-10.2 18.6-10.3 1.8-0.1 2.7-0.8 3.6-2.3 2.5-4.5 6.4-7.2 12.5-7.7-4.5 4.3-9.1 7.7-9.8 13.7-0.8 6 3.2 10.1 6.8 14.8z"/>
		<path id="&lt;Path&gt;" class="s1" d="m59.6 1803.7c12.1 3.4 23.4 8.2 31.8 17.9 6.9 7.8 9.2 15.4 8 26.4-8.6-19.4-23.2-32.8-39.8-44.3z"/>
		<path id="&lt;Path&gt;" class="s1" d="m83 1732.5c-15.4 13.7-40.9 10.9-58.7-6.3 9.1 4.2 18.5 6.7 28.5 7.6 10 0.8 19.8 0.4 30.2-1.3z"/>
		<path id="&lt;Path&gt;" class="s1" d="m-75.1 1805.8c27.3 5.1 34.2 24.6 24.9 43.9-0.6-9.2-2.6-17.4-6.8-25-4.2-7.7-10.2-13.8-18.1-18.9z"/>
		<path id="&lt;Path&gt;" class="s1" d="m13.2 1750.3c10.6 5.6 20.7 2.4 30.8 0.4 6.4-1.2 12.7-2.6 19.2-3.6-11.2 4.7-21.8 10.9-34.1 12.2-7.3 0.7-12.8-2.3-15.9-9z"/>
		<path id="&lt;Path&gt;" class="s1" d="m156.8 1754.1c2-6.3 5.1-8.2 11.6-6.9-3.2 5.1-8 8.2-11.6 6.9z"/>
		<text id="equimap
" style="transform: matrix(1,0,0,1,-189.431,1063.551)" >
			<tspan x="0" y="0" class="t3" dx="0 -5 -5 -5 -5 -5 -5 -5" >equimap
</tspan>
		</text>
		<path id="&lt;Path&gt;" class="s0" d="m-92.1 935.7c-11.3-0.5-19.8 5.1-27.5 12.3-10.5 10-18.3 22.2-25.5 34.7-3.7 6.3-7.7 12.4-13.6 17-6.7 5.3-14.3 8.2-22.9 7.6-1 0-2-0.3-3.6-0.6 1-0.5 1.4-0.9 1.8-1 10.2-1.8 17-8.1 21.8-16.8 4.1-7.4 7.7-15 11.8-22.4 5.9-10.5 12.7-20.4 22.3-28 6.8-5.3 14.3-8.7 23.1-7.9 4.6 0.4 8.7 2 12.3 5.1z"/>
		<path id="&lt;Path&gt;" class="s0" d="m47.4 933.3c0.4-1 0.5-1.5 0.7-1.8 9-11.5 18.8-22.1 31.1-30.1 16.1-10.3 33.1-12.7 51.2-6.1 2.4 0.8 4.9 1.5 7.3 2.5 4.3 1.8 8.4 2.4 13.1 1 4.9-1.4 9.8-0.6 13.4 2.6-1.9 1.7-4.1 3.1-5.5 4.9-2.5 3.3-4.5 6.8-7 10.7-1.1-5 0.2-8.7 3.1-12.2-4.9 0.1-6.6 2-9.2 9.6-0.5-2.2-1-4.3-1.6-6.9-9.5-4.5-19.9-6.1-30.7-4.8-23.1 2.6-42.6 13.2-60.6 27.2-0.9 0.7-1.8 1.5-2.7 2.2-0.6 0.4-1.3 0.6-2.6 1.2z"/>
		<path id="&lt;Path&gt;" class="s0" d="m48.7 923.3c-2.7 1.9-5.4 4.1-8.3 5.8-8.2 5-17.4 7.4-26.8 7.7-17.4 0.6-34.8 0.5-52.2 0.4-17.1 0-34.1 0.2-50.7 5.5-0.2 0.1-0.5 0-1.3 0 0.9-0.7 1.3-1.2 1.9-1.6 11.1-8 23.6-11.7 37-12.1 13.9-0.5 27.8-0.3 41.7 0.1 19.4 0.6 38.4-0.4 57-6.2 0.4-0.1 0.9-0.2 1.3-0.3q0.2 0.3 0.4 0.7z"/>
		<path id="&lt;Path&gt;" class="s0" d="m140.8 896.7c-11.6-8.2-24.4-9.3-37.7-7.9-14.4 1.4-28.6 0.9-42-5.7q-0.9-0.4-1.7-0.9c-0.2-0.1-0.2-0.3-0.3-0.6 0.6 0 1.2 0 1.7 0.2 13.4 3.8 26.5 2.3 39.7-1.1 9.4-2.5 18.8-3 28 0.9 5.3 2.2 9.1 5.9 11.3 11.3 0.4 1.2 0.7 2.5 1 3.8z"/>
		<path id="&lt;Path&gt;" class="s0" d="m134.6 953.5c3.1 1.5 4.3 3.9 4.8 6.6 0.5 2.9 0.8 5.8 1.1 8.8 0.4 2.8 1.6 3.7 4.3 3.2 5-0.9 7.5-3.8 7.7-8.9 0.6-13.7 1.2-27.4 1.8-41.1 0.1-1.6 0.4-3 0.8-5.4 3 5.2 5.4 9.6 5 15-0.9 12.5-1.9 24.9-2.8 37.3-0.2 2.7-1.3 4.6-3.7 5.8q-2.7 1.3-5.5 2.5c-6.1 2.6-11.4-0.5-12.5-7.2q-0.1-1.2-0.2-2.3c-0.3-4.6-0.5-9.2-0.8-14.3z"/>
		<path id="&lt;Path&gt;" class="s0" d="m132.5 952.6c-7.6-1.6-10.2-7.1-12.3-13.3-7.1 2.5-12.8 6.7-17 12.8-4.2 6.1-8 12.4-12 18.6-0.5 0.8-1.1 1.7-1.9 2.4 3.2-9.9 5.7-20 11.5-28.7 4.4-6.5 10.6-10.2 18.6-10.3 1.8 0 2.7-0.8 3.6-2.3 2.5-4.5 6.4-7.1 12.5-7.7-4.5 4.3-9.1 7.7-9.8 13.7-0.8 6 3.2 10.1 6.8 14.8z"/>
		<path id="&lt;Path&gt;" class="s0" d="m59.6 964.3c12.1 3.4 23.4 8.3 31.8 17.9 6.9 7.8 9.2 15.4 8 26.4-8.6-19.4-23.2-32.7-39.8-44.3z"/>
		<path id="&lt;Path&gt;" class="s0" d="m83 893.1c-15.4 13.8-40.9 10.9-58.7-6.3 9.1 4.2 18.5 6.7 28.5 7.6 10 0.8 19.8 0.4 30.2-1.3z"/>
		<path id="&lt;Path&gt;" class="s0" d="m-75.1 966.4c27.3 5.1 34.2 24.6 24.9 43.9-0.6-9.2-2.6-17.4-6.8-25-4.2-7.7-10.2-13.8-18.1-18.9z"/>
		<path id="&lt;Path&gt;" class="s0" d="m13.2 910.9c10.6 5.6 20.7 2.4 30.8 0.4 6.4-1.2 12.7-2.6 19.2-3.6-11.2 4.7-21.8 10.9-34.1 12.2-7.3 0.7-12.8-2.3-15.9-9z"/>
		<path id="&lt;Path&gt;" class="s0" d="m156.8 914.7c2-6.3 5.1-8.2 11.6-6.9-3.2 5.1-8 8.3-11.6 6.9z"/>
		<path id="&lt;Path&gt;" class="s4" d="m47.4 84.7c0.4-1.1 0.5-1.5 0.7-1.9 9-11.5 18.8-22.1 31.1-30.1 16.1-10.3 33.1-12.6 51.2-6.1 2.4 0.8 4.9 1.5 7.3 2.5 4.3 1.9 8.4 2.4 13.1 1 4.9-1.4 9.8-0.6 13.4 2.6-1.9 1.7-4.1 3.1-5.5 5-2.5 3.2-4.5 6.7-7 10.6-1.1-4.9 0.2-8.7 3.1-12.2-4.9 0.1-6.6 2.1-9.2 9.6-0.5-2.1-1-4.3-1.6-6.9-9.5-4.5-19.9-6-30.7-4.8-23.1 2.6-42.6 13.2-60.6 27.2-0.9 0.7-1.8 1.5-2.7 2.2-0.6 0.4-1.3 0.7-2.6 1.3z"/>
		<path id="&lt;Path&gt;" class="s4" d="m140.8 48c-11.6-8.2-24.4-9.2-37.7-7.9-14.4 1.5-28.6 0.9-42-5.7q-0.9-0.4-1.7-0.9c-0.2-0.1-0.2-0.3-0.3-0.6 0.6 0.1 1.2 0.1 1.7 0.2 13.4 3.8 26.5 2.3 39.7-1.1 9.4-2.4 18.8-3 28 0.9 5.3 2.2 9.1 6 11.3 11.3 0.4 1.2 0.7 2.6 1 3.8z"/>
		<path id="&lt;Path&gt;" class="s4" d="m134.6 104.8c3.1 1.5 4.3 3.9 4.8 6.6 0.5 2.9 0.8 5.9 1.1 8.8 0.4 2.8 1.6 3.7 4.3 3.2 5-0.9 7.5-3.8 7.7-8.9 0.6-13.7 1.2-27.4 1.8-41.1 0.1-1.5 0.4-3 0.8-5.4 3 5.2 5.4 9.6 5 15.1-0.9 12.4-1.9 24.8-2.8 37.3-0.2 2.6-1.3 4.5-3.7 5.7q-2.7 1.3-5.5 2.5c-6.1 2.6-11.4-0.5-12.5-7.2q-0.1-1.2-0.2-2.3c-0.3-4.6-0.5-9.2-0.8-14.3z"/>
		<path id="&lt;Path&gt;" class="s4" d="m132.5 103.9c-7.6-1.5-10.2-7.1-12.3-13.3-7.1 2.5-12.8 6.8-17 12.8-4.2 6.1-8 12.4-12 18.6-0.5 0.9-1.1 1.7-1.9 2.4 3.2-9.8 5.7-19.9 11.5-28.6 4.4-6.6 10.6-10.2 18.6-10.4 1.8 0 2.7-0.7 3.6-2.2 2.5-4.6 6.4-7.2 12.5-7.7-4.5 4.2-9.1 7.7-9.8 13.6-0.8 6 3.2 10.1 6.8 14.8z"/>
		<path id="&lt;Path&gt;" class="s4" d="m59.6 115.6c12.1 3.5 23.4 8.3 31.8 17.9 6.9 7.8 9.2 15.4 8 26.5-8.6-19.5-23.2-32.8-39.8-44.4z"/>
		<path id="&lt;Path&gt;" class="s4" d="m83 44.4c-15.4 13.8-40.9 11-58.7-6.3 9.1 4.2 18.5 6.8 28.5 7.6 10 0.9 19.8 0.4 30.2-1.3z"/>
		<path id="&lt;Path&gt;" class="s4" d="m13.2 62.2c10.6 5.6 20.7 2.5 30.8 0.5 6.4-1.3 12.7-2.7 19.2-3.7-11.2 4.7-21.8 10.9-34.1 12.2-7.3 0.8-12.8-2.2-15.9-9z"/>
		<path id="&lt;Path&gt;" class="s4" d="m156.8 66c2-6.3 5.1-8.1 11.6-6.8-3.2 5.1-8 8.2-11.6 6.8z"/>
	</g>
</svg>
